<svg version="1.1" id="Layer_1" xmlns="http://www.w3.org/2000/svg" xmlns:xlink="http://www.w3.org/1999/xlink" x="0px" y="0px"
	 width="100%" viewBox="0 0 512 512" enable-background="new 0 0 512 512" xml:space="preserve">
<path fill="#000000" opacity="1.000000" stroke="none" 
	d="
M61.702728,222.959503 
	C67.388351,192.869827 80.504189,165.843460 93.086479,138.694351 
	C108.554092,105.319504 124.710289,72.263786 140.568512,39.069965 
	C141.562668,36.989029 142.286652,34.705563 145.679138,33.102936 
	C152.045975,51.990101 151.018967,71.286766 151.443115,90.488785 
	C151.879028,110.222145 147.364975,128.620514 137.198029,146.940063 
	C143.762283,143.747101 148.082443,139.626816 155.515030,137.574203 
	C147.431793,156.215027 137.660126,172.535233 129.115540,190.523621 
	C134.483398,188.837769 138.597748,187.258240 141.363892,183.124283 
	C174.414978,133.730148 215.559464,91.664993 260.035583,52.684494 
	C274.697388,39.834370 290.179138,27.983116 307.640045,19.011341 
	C309.227997,18.195419 310.689789,16.967743 313.179138,17.659349 
	C313.003632,22.877146 310.555664,27.463797 308.643951,32.089909 
	C295.677155,63.468201 278.588745,92.611389 259.967560,120.895920 
	C238.318863,153.779022 214.209534,184.786148 188.340286,214.442322 
	C187.156433,215.799469 186.053650,217.227356 184.881989,218.660370 
	C187.085785,221.502274 190.294159,220.505463 192.866501,221.351013 
	C204.467545,225.164307 214.522598,231.544739 223.655823,239.465759 
	C231.371643,246.157516 238.400162,253.478012 243.016891,262.759888 
	C243.897873,264.531067 244.951431,266.198242 247.128723,265.535278 
	C255.201813,263.077179 261.407043,266.944092 267.301453,271.463287 
	C275.967346,278.107300 283.559631,285.790680 288.510834,295.698944 
	C292.070831,302.823212 291.053558,305.531555 283.940277,308.817047 
	C279.712982,310.769592 275.615540,312.948242 271.946686,315.679718 
	C271.748901,317.811310 273.393280,318.580414 274.548553,319.163940 
	C289.594727,326.763550 302.699493,337.575409 317.583740,345.349701 
	C327.653961,350.609589 337.897278,355.675934 346.490784,363.006287 
	C359.058289,373.726532 373.131439,382.415497 385.623138,393.174713 
	C388.915558,396.010529 391.765167,399.283630 394.110718,402.964142 
	C400.796936,413.455750 399.181702,421.484283 388.907593,428.578583 
	C381.971558,433.367920 374.150085,436.189606 366.155029,438.572662 
	C354.023682,442.188538 341.568481,444.262848 329.085693,446.169342 
	C327.325867,446.438080 325.098297,446.871460 324.258301,444.677582 
	C321.432648,437.297699 314.781677,434.689850 308.394623,431.951874 
	C295.116364,426.259735 280.960022,424.012085 266.742188,422.494476 
	C245.789474,420.257996 224.879913,420.689178 204.210083,425.309418 
	C197.539703,426.800415 191.037857,428.767456 185.229355,432.622559 
	C181.716507,434.954010 180.037354,437.838409 180.219254,442.191956 
	C180.510895,449.172546 181.028137,456.109344 182.133560,463.006714 
	C182.335815,464.268738 182.719864,465.615631 181.075729,467.371704 
	C178.631927,460.334259 176.288528,453.686646 174.016052,447.014862 
	C171.509094,439.654633 170.599106,438.898071 162.918167,439.198608 
	C147.555588,439.799622 133.286499,444.899475 119.087517,450.160217 
	C104.541252,455.549591 90.515053,462.088074 76.988670,469.696259 
	C75.426422,470.574921 73.972191,471.800232 71.127869,471.899200 
	C75.801758,462.347687 83.857422,455.515594 88.162628,446.046478 
	C83.773621,445.343597 83.247742,449.610229 80.352859,451.632996 
	C80.464241,447.410156 77.969734,446.317566 74.807877,446.463654 
	C66.606644,446.842590 58.584442,445.402527 50.520187,444.335815 
	C44.514454,443.541351 43.907322,442.267273 46.832474,437.130219 
	C56.682632,419.831787 64.702843,401.838898 68.129593,382.027710 
	C69.969971,371.387909 68.188774,368.057220 57.862045,365.454163 
	C47.069687,362.733643 36.144928,362.778107 25.138210,364.161560 
	C14.998236,365.436035 13.971174,363.981110 17.654690,354.559021 
	C20.131367,348.223877 24.366861,343.120422 29.079350,338.365601 
	C35.812435,331.572052 41.465115,324.016937 45.822224,315.467194 
	C47.448978,312.275055 47.998215,309.438141 46.145241,306.076996 
	C43.819614,301.858490 42.150806,297.279053 39.844036,293.048676 
	C38.318832,290.251587 38.621586,288.409821 41.372025,286.869049 
	C43.115528,285.892365 44.856514,284.868439 46.044930,283.185059 
	C46.914703,281.953033 48.083122,280.469147 47.030468,279.093903 
	C42.125874,272.686310 45.593880,265.923889 46.085541,259.351746 
	C47.254219,243.729736 47.889668,228.132523 45.421501,212.582108 
	C45.061012,210.310898 44.263821,208.054794 42.432350,206.380310 
	C39.813896,203.986328 40.728977,201.562866 42.610603,199.349304 
	C45.770023,195.632553 49.988682,194.966553 54.449848,195.986542 
	C59.046627,197.037552 60.081146,200.926407 60.267128,204.849670 
	C60.566486,211.164474 60.447159,217.499100 60.518448,223.825195 
	C60.519791,223.944550 60.677906,224.149658 60.785530,224.166061 
	C61.469357,224.270264 61.519329,223.728973 61.702728,222.959503 
M202.826248,298.913757 
	C206.250626,299.821564 209.229492,299.778168 210.384125,295.588989 
	C206.222427,292.537048 206.103104,292.590057 201.530563,299.471039 
	C200.247787,300.769257 199.100189,302.145264 198.818390,304.114136 
	C200.063385,305.634613 201.658447,306.880157 203.359558,305.355804 
	C205.353348,303.569214 203.527756,302.268585 202.196548,300.986328 
	C201.882462,300.683807 202.142242,299.785461 202.826248,298.913757 
M212.435287,299.354309 
	C209.806976,301.711517 207.979492,304.671692 206.208878,307.668488 
	C203.659790,311.982880 201.899780,317.612885 194.912033,313.577515 
	C193.656158,318.151672 195.090790,321.739441 196.046265,325.357635 
	C196.293594,326.294250 196.821304,327.283203 198.010986,327.325134 
	C199.393539,327.373932 200.210739,326.413483 200.437881,325.245178 
	C202.352219,315.399261 207.968002,307.342621 213.568253,298.654755 
	C217.648300,294.492310 221.728348,290.329865 225.808395,286.167389 
	C221.274277,290.196564 216.085464,293.579559 212.435287,299.354309 
M129.468826,423.581604 
	C130.493820,422.319275 131.891190,421.271606 131.909439,419.464844 
	C130.918243,417.249939 126.670219,418.193176 127.226768,414.412933 
	C128.678421,413.216461 130.342072,413.711060 131.961090,413.807495 
	C136.693954,414.089447 141.253036,413.205902 145.533005,411.258270 
	C147.162170,410.516876 148.933807,408.988220 147.789825,406.951050 
	C146.756210,405.110443 145.057114,403.448669 142.463440,405.114746 
	C140.517532,406.364685 138.462875,407.445068 136.514069,408.690796 
	C134.108170,410.228607 131.695557,411.869629 128.673477,411.201050 
	C124.025024,410.172699 119.542229,411.752533 115.057549,411.419037 
	C114.356659,413.252319 117.239075,414.084442 115.079758,416.159943 
	C111.039742,414.216400 107.489235,417.693024 103.570930,419.021851 
	C102.748154,416.603149 103.969055,415.816711 104.957779,414.993134 
	C105.952972,414.164185 107.057594,413.466583 109.159355,411.964600 
	C101.027657,414.084900 101.027657,414.084900 97.941933,416.675385 
	C99.497650,420.004944 101.073730,423.378113 103.254547,428.045502 
	C104.406815,421.551727 106.804497,418.684265 112.393272,421.298065 
	C114.091896,422.092438 114.973152,420.617340 116.177910,419.714233 
	C119.560532,417.178680 123.306755,417.446564 127.042686,418.989807 
	C129.410522,419.967926 129.423782,421.917389 128.464874,424.418091 
	C127.887344,425.016693 127.274841,425.585815 126.739922,426.220337 
	C125.773598,427.366638 124.799919,428.966553 123.118111,427.776459 
	C121.374680,426.542725 122.757042,425.160217 123.465187,423.878357 
	C123.756325,423.351349 123.839111,422.709229 124.072098,421.935425 
	C120.285973,420.652222 118.332993,422.483002 117.389969,425.440521 
	C116.398430,428.550140 117.987747,430.190460 121.012688,431.352997 
	C124.917877,432.853882 128.240952,432.811462 131.815979,430.425323 
	C136.932587,427.010223 142.283386,423.941071 147.584732,420.809814 
	C150.202591,419.263550 152.337128,417.186798 154.487900,415.101074 
	C155.589706,414.032562 156.079453,412.850037 154.833954,411.660980 
	C153.658264,410.538574 152.304840,409.951630 150.999435,411.603668 
	C148.422318,414.865051 144.723389,415.764832 140.895111,416.369690 
	C138.475098,416.752045 136.995422,417.600250 136.033096,420.374420 
	C134.861053,423.753174 132.571823,426.955170 127.984528,427.793152 
	C128.399765,426.186707 128.686951,425.075653 129.468826,423.581604 
M264.497864,52.033363 
	C214.331238,95.154259 169.366669,142.819260 134.702469,199.709473 
	C144.192017,199.866776 153.012329,198.847504 161.679703,196.722107 
	C163.986176,196.156509 164.650146,194.402451 164.273727,192.049561 
	C163.853607,189.423309 163.721573,186.753769 165.381577,184.439575 
	C166.405151,184.371475 167.023773,184.891052 167.575729,185.549637 
	C172.043091,190.880157 175.513657,191.384079 181.108978,187.233994 
	C185.876404,183.697983 189.513092,179.214600 191.766403,173.646347 
	C195.770950,163.750687 194.695892,160.413208 185.499435,155.281006 
	C190.281021,152.261490 195.124069,152.324493 199.810089,154.663528 
	C203.964371,156.737167 205.187561,160.782990 205.309875,165.158310 
	C205.562042,174.179337 200.406586,180.942032 195.337326,187.485840 
	C176.109711,212.306381 152.995773,232.580444 124.678146,246.567322 
	C121.386322,248.193237 119.235466,250.544571 117.772850,254.003708 
	C113.104103,265.045441 107.933220,275.860626 102.015030,286.304199 
	C101.411552,287.369141 100.407028,288.457947 101.461639,290.468689 
	C107.735458,286.209290 112.482681,280.682037 116.509682,274.638184 
	C124.222992,263.061707 134.467880,254.218430 145.498688,246.007599 
	C159.243378,235.776703 173.678604,226.332169 185.330139,213.550400 
	C201.943634,195.325378 217.360275,176.108398 232.087311,156.336624 
	C259.916260,118.974930 284.948883,79.921249 303.706970,37.119976 
	C305.834961,32.264397 308.489349,27.465071 309.161743,21.086811 
	C305.606445,23.072041 302.899414,24.583599 299.809906,26.308737 
	C301.942383,29.019018 301.044800,31.637857 300.146729,34.077103 
	C298.884949,37.504200 297.429993,40.891056 295.724609,44.119190 
	C278.308136,77.086601 256.590576,107.180321 233.766495,136.524872 
	C231.101227,139.951553 229.362961,139.715439 227.545425,135.295334 
	C223.915878,126.468475 221.957062,117.205154 221.692932,107.656380 
	C221.579285,103.547966 220.591324,99.295174 223.086792,93.756943 
	C225.796890,105.752480 226.326614,117.153397 234.402496,125.369453 
	C236.878998,124.745049 237.657852,123.183449 238.641830,121.885414 
	C244.578308,114.054260 250.411346,106.143082 256.450470,98.392311 
	C258.368805,95.930260 258.668793,93.612350 258.234772,90.549171 
	C257.640869,86.357590 256.037964,82.026985 257.753540,76.877151 
	C261.141663,81.155235 259.154816,86.386292 262.789459,90.295471 
	C269.815247,79.783905 276.578979,69.524117 283.492645,59.366337 
	C288.751007,51.640541 293.860504,43.842922 297.124969,35.025005 
	C297.753754,33.326534 299.773132,31.258932 297.525330,29.638906 
	C295.596680,28.248899 293.751373,29.949955 292.113586,31.060745 
	C282.730499,37.424496 273.736938,44.303398 264.497864,52.033363 
M180.388229,317.658936 
	C187.141312,318.231354 187.651367,317.878448 191.882492,307.761688 
	C194.908432,300.526520 188.036057,299.200989 183.542145,295.619995 
	C190.916840,292.015167 194.437180,286.107483 195.694122,278.591736 
	C198.803421,280.560547 199.447769,283.712555 202.446945,285.023895 
	C201.626724,276.292511 198.455002,268.651184 196.474503,260.590759 
	C201.137909,267.951294 204.104355,276.435516 213.409012,280.886017 
	C210.979843,270.733002 207.012405,262.108643 204.494431,252.978333 
	C210.912415,260.590881 212.147079,270.594452 216.434708,279.616058 
	C224.418076,275.260132 231.709778,270.933594 239.636383,267.889771 
	C242.637253,266.737396 241.110275,264.630829 240.235245,262.947021 
	C236.970596,256.664917 232.343567,251.396881 227.345505,246.484726 
	C216.523743,235.849014 204.419937,227.231445 189.529816,223.139252 
	C187.578827,222.603073 185.755630,222.112976 184.051178,224.012939 
	C191.562149,230.558746 199.174210,236.826614 201.574158,247.038925 
	C195.102524,239.063690 189.674652,230.118362 178.946121,224.575928 
	C182.991760,230.010529 187.410645,233.623581 189.528214,239.170944 
	C186.571960,239.576736 185.925797,237.459442 184.720963,236.296509 
	C183.049759,234.683472 181.661392,232.781448 180.040222,231.111633 
	C177.552368,228.549164 175.244736,228.148224 172.519318,231.192215 
	C168.078674,236.151917 163.620483,241.187546 158.574219,245.493225 
	C149.601913,253.148758 145.286545,263.195892 142.524673,274.166107 
	C141.229156,279.311890 140.624313,284.571106 141.841568,289.959442 
	C150.671402,290.644043 159.664963,289.834259 167.912979,295.249115 
	C165.319290,296.796173 163.292038,296.274506 161.355286,296.313782 
	C155.860199,296.425201 150.214005,295.642944 144.891830,296.633606 
	C115.581795,302.089294 87.576065,311.265747 62.026943,327.075806 
	C55.893044,330.871582 49.384541,333.060333 41.923367,329.870972 
	C35.265705,338.954529 24.949535,345.248169 21.707308,356.828064 
	C23.599194,357.945343 24.576170,357.045502 25.552214,356.550385 
	C62.029541,338.046570 100.473145,325.506226 140.847382,319.109100 
	C153.617096,317.085754 166.531906,315.221985 180.388229,317.658936 
M335.861969,366.730377 
	C326.307129,362.848541 316.605438,359.377930 306.740265,356.369934 
	C289.872650,351.226807 272.607361,347.952881 255.191284,345.366760 
	C250.620468,344.687988 247.518707,346.238708 245.623291,350.551971 
	C242.493271,357.674713 240.845184,365.025940 241.325150,372.837311 
	C241.519562,376.001434 242.705368,377.775818 246.194061,377.690674 
	C252.515945,377.536224 258.820343,378.309143 265.116028,378.501831 
	C291.238220,379.301208 317.089630,382.234406 342.610596,387.745300 
	C360.900055,391.694702 379.144592,396.032806 394.268250,408.770660 
	C391.761383,402.579651 387.528137,398.158936 382.881958,394.122314 
	C369.150055,382.191986 353.163513,374.087036 335.861969,366.730377 
M48.486885,258.854218 
	C48.231464,261.499542 48.132107,264.171173 47.691086,266.785187 
	C46.414917,274.349335 47.906147,276.499695 55.487705,275.854523 
	C68.944534,274.709290 80.238831,268.553101 90.014442,259.487610 
	C91.314476,258.282013 92.191490,256.539001 93.022110,254.920486 
	C109.598274,222.620865 126.174469,190.321121 142.647949,157.969131 
	C145.114273,153.125565 148.322647,148.569565 149.695282,142.845428 
	C139.922958,148.280106 131.357803,154.613190 123.061272,161.304916 
	C116.860458,166.306274 110.250877,171.017105 108.373573,179.573883 
	C105.152908,194.253632 100.355927,208.443512 94.145935,222.101562 
	C88.702759,234.073135 83.083794,246.032639 73.487091,255.456238 
	C70.765831,258.128418 67.802597,261.588501 63.636795,259.867035 
	C59.197113,258.032379 57.379379,253.638123 56.731609,248.974670 
	C56.527065,247.502106 56.668362,245.979782 56.672276,244.480270 
	C56.706146,231.493576 58.376541,218.550354 57.687683,205.543243 
	C57.354294,199.248184 52.532349,196.184998 47.039959,198.978989 
	C44.426296,200.308578 42.575928,202.235001 45.101036,205.268799 
	C46.891445,207.419907 47.532223,210.062820 47.938217,212.647156 
	C50.303410,227.702789 49.657639,242.826843 48.486885,258.854218 
M248.983749,330.521912 
	C259.072815,320.701172 270.478577,312.730286 283.090302,306.513916 
	C288.296387,303.947815 288.987976,302.615265 286.423553,297.227386 
	C282.178314,288.308167 275.327026,281.529510 267.918091,275.251190 
	C255.930603,265.093018 240.780075,265.546295 228.701859,276.756256 
	C230.989548,277.606049 232.844177,278.877625 234.415329,280.376587 
	C250.582870,272.903564 252.709183,272.317749 257.617035,274.400391 
	C255.079254,275.412140 252.971237,276.215515 250.891861,277.087219 
	C231.180405,285.350922 216.182495,298.393066 208.307266,318.789001 
	C204.328720,329.093018 207.867844,337.050385 217.688583,339.287262 
	C222.119492,340.296478 225.205246,338.574829 226.534912,334.241272 
	C231.892212,316.780914 243.313797,304.295471 258.726685,295.152283 
	C261.325378,293.610687 264.159912,292.133270 268.262848,293.245819 
	C266.594757,294.523407 265.537903,295.495300 264.335144,296.227478 
	C256.990143,300.698730 250.900681,306.512543 245.569519,313.224548 
	C243.757065,315.506470 243.271500,317.114960 245.477554,319.618286 
	C249.056473,323.679413 247.191299,329.830475 241.820206,332.325165 
	C241.095947,329.696381 240.273178,326.985199 236.419189,327.801147 
	C236.741562,331.122894 239.703949,331.858551 240.967148,333.931458 
	C242.417465,336.311432 240.105652,338.804077 241.250244,341.917847 
	C243.671143,337.699982 245.762390,334.147430 248.983749,330.521912 
M54.452286,313.121002 
	C60.085392,318.071625 62.763298,316.633575 66.665031,306.323059 
	C71.831253,307.922241 73.561447,304.382751 75.064774,300.440033 
	C77.371437,294.390411 79.495888,288.295868 80.715569,281.910004 
	C81.142776,279.673340 82.166954,277.502899 80.594406,274.652740 
	C69.059898,279.175903 57.502041,283.725098 45.929062,288.235504 
	C42.751408,289.473969 43.317890,291.541718 44.511639,293.846832 
	C47.722858,300.047699 50.917141,306.257355 54.452286,313.121002 
M285.905457,337.655914 
	C281.331238,336.875671 276.776642,335.942474 272.178009,335.352600 
	C265.929138,334.551025 259.655487,333.898193 253.374817,333.407501 
	C250.150925,333.155609 249.014404,335.692230 248.764481,338.258026 
	C248.506012,340.911316 250.839798,341.309967 252.836960,341.627106 
	C257.421417,342.355194 262.014221,343.032440 266.608215,343.698578 
	C284.876709,346.347534 302.771606,350.445679 319.977875,357.281128 
	C327.779053,360.380310 335.623993,363.369293 343.449097,366.408264 
	C326.862518,352.121613 308.024078,342.506165 285.905457,337.655914 
M113.705086,370.634949 
	C124.282623,371.340973 134.117096,375.156250 144.192169,377.953552 
	C146.806976,378.679535 149.314392,379.478973 151.344589,376.346527 
	C150.240829,375.659424 148.459320,374.807617 148.539230,374.562317 
	C150.273651,369.238983 145.062332,366.753693 143.764038,362.689514 
	C142.489517,358.699707 139.672058,357.934357 135.451447,359.128265 
	C125.981895,361.806915 116.360489,363.223419 106.440720,360.952271 
	C102.693672,360.094421 98.628235,359.921600 94.682617,361.319397 
	C95.921097,365.753021 98.349396,368.419525 103.010391,368.891144 
	C106.305397,369.224548 109.555450,370.002106 113.705086,370.634949 
M137.072052,217.650238 
	C145.395737,217.905273 153.686737,217.640656 161.804855,215.581421 
	C166.603394,214.364227 169.825180,210.201721 169.673859,205.929916 
	C169.575302,203.147873 168.276306,201.450592 165.485229,201.369781 
	C155.231827,201.072968 145.385361,203.287384 135.835312,206.767624 
	C131.998627,208.165817 133.441986,212.264023 132.726990,215.117813 
	C132.204742,217.202347 134.531860,217.453873 137.072052,217.650238 
M90.013611,359.930420 
	C83.369675,358.698273 80.196945,360.047546 79.464813,364.736847 
	C78.877350,368.499512 78.508156,372.318756 78.371422,376.124725 
	C78.047806,385.132904 78.128220,385.130768 86.804733,387.197998 
	C87.034035,387.252655 87.167000,387.711639 87.245720,387.831299 
	C88.024940,390.119446 84.040375,389.903900 85.243393,392.541443 
	C87.254875,392.158142 90.998283,391.891327 91.034508,391.367950 
	C91.349716,386.813873 95.553886,387.557037 97.859184,385.911682 
	C101.352386,383.418427 106.141228,382.674408 108.590797,378.204193 
	C106.135017,377.455688 104.718079,378.719818 103.157623,379.572266 
	C99.820786,381.395111 96.529587,383.330292 93.070724,384.888885 
	C91.312828,385.681000 89.014198,386.250610 87.421097,384.653931 
	C86.106262,383.336090 86.332520,381.074554 87.772041,380.173218 
	C95.346062,375.430664 95.598251,369.547913 91.120560,362.578888 
	C90.779655,362.048340 91.295929,360.963470 90.013611,359.930420 
M157.349258,401.076263 
	C157.592621,404.279938 159.981522,405.314301 162.632309,406.509613 
	C169.317261,398.511719 171.779785,388.871399 174.559174,379.392059 
	C175.002808,377.878998 174.431976,376.425842 172.913956,375.579346 
	C170.935120,374.475922 168.896133,373.918793 166.813660,375.264404 
	C163.488342,377.413116 161.130524,380.305450 160.362579,384.272583 
	C159.330521,389.604187 158.376236,394.950897 157.349258,401.076263 
M168.622910,190.932358 
	C166.880844,189.618042 166.187714,190.173569 166.573654,192.185013 
	C167.485687,196.938446 172.786179,199.408661 177.671799,196.924820 
	C188.924103,191.204117 197.339645,182.592865 201.259125,170.478073 
	C204.624664,160.075455 199.984161,155.242828 193.242096,156.059998 
	C194.760162,159.042160 196.527039,162.035141 196.200104,165.385223 
	C195.116470,176.489029 190.007538,185.256531 180.197845,190.866135 
	C176.762711,192.830505 172.951309,193.175552 168.622910,190.932358 
M274.653931,324.612762 
	C270.667694,324.514832 266.679138,324.286224 262.695892,324.356781 
	C258.934937,324.423462 256.362518,326.376923 254.485413,330.544617 
	C269.273315,331.693451 283.369751,333.598694 297.365753,336.389343 
	C291.101990,330.296356 283.350800,327.444031 274.653931,324.612762 
M64.722687,406.033417 
	C60.869282,417.357422 55.241734,427.887390 49.578117,438.823242 
	C62.146179,434.766449 75.987747,401.632965 69.736984,391.676788 
	C69.570236,391.958405 69.346268,392.221008 69.245338,392.524506 
	C67.829353,396.782227 66.430145,401.045502 64.722687,406.033417 
M148.338348,354.762390 
	C145.870438,357.729797 148.852798,359.725983 149.872894,361.817627 
	C153.727982,369.722198 154.727661,369.845703 161.783600,364.401093 
	C163.844284,362.810974 165.966614,361.657349 164.804672,358.062836 
	C161.653931,348.315704 161.712708,348.182556 152.431885,352.512543 
	C151.234573,353.071167 150.085342,353.732758 148.338348,354.762390 
M137.008102,220.517960 
	C134.823532,220.468262 132.858658,221.081085 130.056732,222.722290 
	C136.307617,224.853287 141.638763,226.876419 147.103256,228.430756 
	C149.239059,229.038284 150.372025,227.195786 150.577179,225.126038 
	C150.786255,223.016617 150.082184,221.531830 147.681168,221.354874 
	C144.363693,221.110367 141.049057,220.827179 137.008102,220.517960 
M132.955704,385.964081 
	C138.315475,392.150421 143.160736,398.868927 150.592209,402.958862 
	C145.793625,397.512146 141.260437,391.918091 138.204758,385.273529 
	C137.562851,383.877625 136.260010,382.880005 134.740402,382.671051 
	C132.667648,382.386108 131.385727,383.071960 132.955704,385.964081 
M135.417130,227.277496 
	C133.139099,226.954300 130.576355,224.806015 128.302109,228.804901 
	C131.867050,229.536880 134.804138,230.850800 137.399567,232.803894 
	C140.359085,235.030914 142.070908,233.862595 143.307343,230.822296 
	C141.225525,228.703293 138.781189,227.887573 135.417130,227.277496 
M126.141129,234.406998 
	C124.682022,237.972076 127.713585,237.576538 129.517807,238.167435 
	C132.652786,239.194153 134.468643,237.884552 135.606979,234.166351 
	C132.276276,233.938171 129.929352,228.451828 126.141129,234.406998 
M154.446533,395.825928 
	C154.625839,393.011292 153.821167,390.776306 151.219055,389.653412 
	C149.460037,390.379944 149.249344,391.775543 148.942566,392.997406 
	C148.330444,395.435486 150.414734,396.439301 151.812851,397.658752 
	C153.246262,398.908966 153.719498,397.454102 154.446533,395.825928 
M233.724472,339.707825 
	C234.764862,338.083557 238.174118,339.372589 237.998947,336.542114 
	C237.883743,334.680328 236.314911,333.542725 233.640594,332.742096 
	C234.113190,335.375153 231.133377,337.238068 233.724472,339.707825 
M213.295685,287.674011 
	C211.429199,288.126007 210.105911,289.074982 209.960999,291.155273 
	C212.101440,292.684967 214.067078,292.731812 215.537979,290.535461 
	C216.772446,288.692139 214.888565,288.464600 213.295685,287.674011 
M100.075333,389.812439 
	C103.495621,388.186798 107.344620,387.272125 109.776268,383.978638 
	C107.624115,384.760712 105.651825,385.869141 103.662804,386.946716 
	C101.725822,387.996094 99.771706,389.013824 97.825111,390.045441 
	C97.934952,390.214233 98.044792,390.383026 98.154640,390.551849 
	C98.609917,390.373016 99.065193,390.194183 100.075333,389.812439 
M240.870911,320.884460 
	C239.107788,324.389832 239.239090,324.585175 243.489731,324.743011 
	C244.114899,322.768799 243.024872,321.702026 240.870911,320.884460 
z"/>
<path fill="#000000" opacity="1.000000" stroke="none" 
	d="
M383.835632,138.667847 
	C386.660065,141.579224 390.675568,141.667023 393.936127,143.206329 
	C394.418701,142.823868 394.785065,142.674210 394.917145,142.408188 
	C398.074890,136.047623 398.083374,136.008026 405.000092,138.423050 
	C409.069855,139.844040 413.017578,141.663925 417.153503,142.832535 
	C421.309357,144.006775 422.194153,145.993088 419.907990,149.583191 
	C419.575195,150.105789 419.550598,150.824661 419.398438,151.396240 
	C427.290802,157.545807 430.197266,157.268555 434.847137,149.715485 
	C442.395599,151.817657 449.763855,154.717056 457.116821,157.666580 
	C459.108521,158.465530 458.719940,159.875656 458.090942,161.683441 
	C458.001190,162.002319 458.030273,161.972580 458.030273,161.972580 
	C457.404968,163.116592 456.447815,164.144424 456.798981,165.941284 
	C460.126404,167.764496 463.874939,168.915649 467.411407,169.898575 
	C470.375580,168.596024 469.470734,164.030960 472.352478,163.909607 
	C476.314301,163.742783 479.948090,165.868774 484.413727,167.810333 
	C453.697662,240.669495 423.060699,313.340973 392.155212,386.649414 
	C386.969574,383.113586 382.217712,380.562775 378.287811,377.083527 
	C349.846893,351.904480 314.744751,336.905151 283.639984,315.290680 
	C286.949921,310.724915 291.669403,308.930573 296.155853,306.948578 
	C303.466156,303.719147 304.785736,301.470276 300.791534,294.400543 
	C291.263275,277.535370 277.935974,265.031647 258.429382,260.621460 
	C255.677628,259.999329 253.749466,258.870300 252.626648,256.567596 
	C249.717728,250.602005 242.790359,247.533432 241.253372,240.621002 
	C235.377411,239.607727 232.293793,234.268723 227.432373,231.657486 
	C226.075592,230.928741 224.297440,230.350769 223.822266,227.665939 
	C228.760040,229.291595 233.344925,230.801056 237.918793,232.306915 
	C241.834885,223.911911 244.656158,215.418549 249.516739,207.284409 
	C241.343536,204.078751 233.000046,200.865692 224.712326,197.514664 
	C222.595734,196.658859 219.147186,196.524139 220.160950,192.874252 
	C221.015030,189.799347 222.309921,186.586990 226.441254,187.932602 
	C230.570450,179.787460 231.724991,169.815262 242.015121,166.023682 
	C241.401337,163.222046 256.243805,140.929932 262.316437,136.488510 
	C262.471252,140.543686 260.070618,143.468887 258.912537,146.749695 
	C257.806580,149.882843 256.384125,152.905869 255.061630,155.960327 
	C254.267639,157.794189 254.529114,159.243179 256.495911,160.030685 
	C260.614868,161.679947 264.756531,163.272415 269.253906,165.030930 
	C267.759430,159.741425 275.551117,141.551910 279.796875,139.896332 
	C274.962158,136.404938 268.758942,136.098587 264.194977,132.550934 
	C267.038147,125.414894 267.679352,125.146744 274.327148,127.317062 
	C277.140076,128.235413 279.842773,129.668076 283.057556,129.615265 
	C282.241486,127.323326 283.176178,125.350609 284.001770,123.375160 
	C287.081573,116.005547 290.207153,108.654961 293.257935,101.273415 
	C293.978394,99.530312 294.439056,97.566612 297.003784,98.481590 
	C301.819458,100.199608 306.745026,101.671555 310.862549,104.012688 
	C312.229675,107.293839 305.793823,111.062950 312.526245,113.327606 
	C319.871216,115.798309 319.772400,116.092094 324.188538,109.030037 
	C332.578064,111.571678 340.885681,114.667809 349.362122,118.378502 
	C352.613464,110.983650 355.997803,103.585777 359.115112,96.077072 
	C360.814362,91.984161 363.379059,92.205162 366.684845,93.756332 
	C368.572205,94.641945 369.161804,95.841553 368.347534,97.718987 
	C364.377167,106.873337 360.386780,116.019028 356.422699,125.176094 
	C355.555450,127.179535 354.030884,127.260117 352.280609,126.677917 
	C350.400085,126.052383 348.540558,125.363701 346.290527,125.509209 
	C349.496368,126.740982 352.674530,128.052856 355.918304,129.175018 
	C357.921112,129.867889 358.666626,128.167603 359.083923,126.804253 
	C360.360992,122.632126 362.826355,122.615807 366.317749,124.081894 
	C371.375458,126.205696 376.605133,127.916428 381.715668,129.920212 
	C383.153625,130.484039 385.157776,130.647034 385.000427,133.615936 
	C384.193146,135.667770 383.399017,137.024811 383.835632,138.667847 
M412.878510,215.303391 
	C418.932281,211.797821 424.952118,208.239670 430.461823,203.895874 
	C433.029724,201.871353 434.752869,199.477249 432.859039,196.175995 
	C430.543518,192.139587 429.187500,185.902618 423.369720,186.720840 
	C415.392761,187.842728 407.837982,186.382706 400.114960,185.560654 
	C397.036255,185.232941 394.382172,184.211014 391.993866,182.171860 
	C388.107727,178.853821 386.241791,179.072571 383.115082,183.184723 
	C378.355164,189.444733 374.657837,196.396149 371.729095,203.613373 
	C361.787140,228.113190 351.995880,252.679077 342.570435,277.381287 
	C338.581543,287.835327 335.001007,298.505219 332.762939,310.352753 
	C336.365753,307.679199 339.854095,306.301270 342.143433,302.908295 
	C350.024902,291.227112 358.978180,280.232758 363.700806,266.637970 
	C365.297150,262.042725 367.079254,261.950165 370.362335,265.588135 
	C373.817932,269.417267 377.386414,273.155121 380.661102,277.134033 
	C384.150848,281.374237 387.996185,281.387695 392.657074,279.271057 
	C403.339050,274.420044 410.386505,267.089722 412.449219,254.959534 
	C414.226257,244.509460 409.638062,233.183807 400.952484,229.989502 
	C402.281342,240.404846 400.908844,250.227859 395.074402,259.139862 
	C392.081665,263.711243 387.679596,265.299103 382.577118,263.401428 
	C379.439270,262.234436 376.603058,260.512085 374.187805,258.142029 
	C369.416229,253.459763 368.866608,249.648712 371.979065,243.874069 
	C379.384796,230.134186 386.962708,216.486008 392.674042,201.898041 
	C395.565094,194.513580 405.589478,191.271820 412.940430,195.064331 
	C412.698914,198.024414 410.213745,199.492371 408.593323,201.527328 
	C403.529236,207.886826 396.917053,212.941376 392.846313,220.129852 
	C392.050629,221.534958 390.893127,223.226929 392.206665,224.746475 
	C393.724945,226.502899 395.721222,225.486633 397.249359,224.617493 
	C402.308014,221.740295 407.256531,218.669479 412.878510,215.303391 
M342.790497,171.177536 
	C331.565735,169.501709 320.340942,167.825882 309.011749,166.134476 
	C310.407196,175.312729 312.429047,177.113586 321.266724,177.397263 
	C324.426910,177.498703 327.589783,177.564804 330.744965,177.754776 
	C332.558136,177.863953 333.916412,178.422028 333.651123,180.804855 
	C333.068573,186.038025 329.615265,189.679657 324.322235,190.337265 
	C322.343689,190.583069 320.349579,191.042526 318.381500,190.958893 
	C315.030701,190.816467 313.637726,192.774643 312.683777,195.487900 
	C309.435120,204.727875 305.998840,213.889908 304.006927,223.544144 
	C303.353058,226.713089 303.979279,228.206955 306.898773,229.190567 
	C309.160828,229.952667 312.394806,230.395309 311.559631,233.806305 
	C310.790771,236.946533 307.691956,236.371796 305.236145,236.376312 
	C294.909882,236.395294 284.583496,236.362305 274.257294,236.393295 
	C272.317535,236.399109 270.122894,236.018585 269.453979,238.773560 
	C268.349304,243.323227 272.565247,249.023682 277.183258,248.814880 
	C283.978699,248.507614 290.764252,247.955902 297.547821,247.428574 
	C299.772705,247.255630 302.628784,245.520294 303.865295,248.206177 
	C305.003845,250.679306 302.156189,252.211823 300.563660,253.740158 
	C298.168182,256.039093 295.547607,258.104095 293.013550,260.257721 
	C292.039215,261.085754 290.614410,261.599365 290.957245,263.350006 
	C292.518219,265.192200 294.538910,264.661102 296.495728,264.378052 
	C303.904419,263.306488 308.555450,258.338013 312.480865,252.634445 
	C315.916534,247.642517 320.232971,245.206711 326.388367,245.833954 
	C331.145844,246.318741 335.963654,246.650955 340.727509,246.439621 
	C342.952423,246.340912 347.422363,245.801346 344.818054,241.948074 
	C341.602661,237.190689 343.665802,234.407181 346.641174,231.112686 
	C353.676392,223.322906 358.245148,214.135712 361.123505,204.123688 
	C363.414612,196.154404 361.639069,192.848907 354.097412,190.273605 
	C352.868622,189.854004 352.062683,189.307892 351.891907,187.946060 
	C351.372375,183.804016 355.035400,180.347229 359.183807,181.022980 
	C364.093689,181.822800 368.973145,182.928986 374.004486,182.661270 
	C375.356354,182.589340 376.818359,182.599640 377.384338,181.098816 
	C378.045502,179.345551 376.838043,178.316010 375.564697,177.422546 
	C374.747223,176.848969 373.898438,176.320099 373.080414,175.747269 
	C366.215515,170.939682 366.154938,170.830246 373.747772,166.480240 
	C376.739929,164.765976 378.638275,162.579453 377.429443,159.266113 
	C376.011719,155.380280 374.155426,151.459885 369.403870,150.532883 
	C367.722412,150.204849 366.721497,151.171082 366.037537,152.803833 
	C364.884094,155.557632 363.419342,158.179428 362.135864,160.880661 
	C358.641541,168.234604 353.778961,173.247620 344.719208,171.212143 
	C344.399109,171.140213 344.055420,171.173157 342.790497,171.177536 
M242.881348,194.835495 
	C246.459793,195.897079 249.714279,197.990219 253.530945,198.471863 
	C254.220123,192.480804 257.406555,187.688751 259.313568,182.432800 
	C260.874115,178.131729 262.357880,173.459534 268.700256,175.317383 
	C268.774628,175.339157 269.008453,174.816574 269.067291,174.717484 
	C263.434784,173.608597 258.429047,170.601089 252.948685,168.969833 
	C251.179062,168.443100 249.430557,167.506638 248.403732,170.047333 
	C245.672516,176.805374 243.084579,183.629135 240.091400,190.269791 
	C238.825684,193.077881 240.314697,193.765839 242.881348,194.835495 
M326.331177,273.929993 
	C327.550446,277.904266 329.692841,276.859253 331.759186,274.794128 
	C338.148560,268.408569 336.057007,258.131989 326.901520,253.043121 
	C326.103027,259.899139 324.435547,266.424805 326.331177,273.929993 
M335.350037,154.734253 
	C335.307922,158.832047 335.268433,162.928986 338.986359,166.233124 
	C343.599731,162.865402 347.178314,158.390594 347.016205,153.175720 
	C346.881287,148.836395 341.135803,149.551819 337.842651,148.096130 
	C337.602661,147.990067 337.227692,148.189438 336.618195,148.301437 
	C336.217041,150.093353 335.791107,151.996078 335.350037,154.734253 
z"/>
<path fill="#000000" opacity="1.000000" stroke="none" 
	d="
M331.030853,88.975777 
	C327.054626,95.350815 324.550598,102.398064 321.695831,109.290627 
	C319.572174,114.418083 318.505310,114.675278 313.508881,112.344238 
	C311.258301,111.294235 310.498962,110.037804 311.557037,107.680099 
	C315.225098,99.506348 318.890900,91.330139 322.413239,83.093155 
	C323.782135,79.892006 325.190125,78.377144 329.136810,79.879471 
	C333.397552,81.501373 332.743195,83.852066 331.450562,86.865227 
	C331.257538,87.315147 331.222778,87.832962 331.057526,88.665192 
	C331.000214,89.011002 331.030853,88.975777 331.030853,88.975777 
z"/>
<path fill="#000000" opacity="1.000000" stroke="none" 
	d="
M330.987213,89.030426 
	C333.061554,85.852448 335.608398,85.662025 339.025970,87.163589 
	C343.889801,89.300591 348.974335,90.944756 353.997375,92.706017 
	C356.870758,93.713539 357.852875,95.056511 356.534943,98.272484 
	C353.280487,106.213890 353.261108,106.376991 344.981598,103.451744 
	C341.218781,102.122276 337.547241,100.469742 333.706024,99.444016 
	C329.359253,98.283295 328.433380,96.021812 330.336761,92.159798 
	C330.695496,91.432014 330.747986,90.553329 330.986328,89.360031 
	C331.030853,88.975777 331.000214,89.011002 330.987213,89.030426 
z"/>
<path fill="#000000" opacity="1.000000" stroke="none" 
	d="
M365.682495,108.390114 
	C366.978271,104.981567 367.958618,101.792770 370.492615,98.983307 
	C377.592682,101.595154 384.718018,104.224442 391.850708,106.833633 
	C393.375244,107.391312 393.903900,108.404045 393.428680,109.941246 
	C393.282196,110.415070 393.082123,110.872192 392.910767,111.338501 
	C389.724457,120.011017 389.718994,120.026443 381.076263,116.893829 
	C377.021240,115.424065 372.981873,113.909325 368.956787,112.359482 
	C367.286896,111.716515 365.302063,111.268608 365.682495,108.390114 
z"/>
<path fill="#000000" opacity="1.000000" stroke="none" 
	d="
M446.869385,141.305969 
	C444.157379,140.049561 441.377289,139.758896 439.439178,137.807678 
	C439.532501,137.136826 439.508240,136.623398 439.678802,136.185928 
	C443.575806,126.189819 443.588745,126.166634 453.578461,129.771088 
	C458.249847,131.456604 462.879089,133.258865 467.388092,134.955765 
	C467.510590,135.562744 467.690948,135.901138 467.616943,136.169342 
	C464.452728,147.637009 464.437927,147.639481 453.350342,143.575668 
	C451.322601,142.832474 449.278900,142.132828 446.869385,141.305969 
z"/>
<path fill="#000000" opacity="1.000000" stroke="none" 
	d="
M457.988037,162.018463 
	C459.883057,161.171906 460.202667,159.234711 460.899994,157.593811 
	C464.014923,150.264465 467.242889,142.976089 470.088745,135.542267 
	C471.674744,131.399429 474.140015,132.836090 476.884064,133.655975 
	C479.926483,134.565018 480.274872,136.290207 479.089783,138.921906 
	C475.340729,147.247498 471.678925,155.612381 467.927246,163.936768 
	C467.194305,165.563034 466.457001,167.765945 464.131195,167.094925 
	C461.678558,166.387329 458.101990,166.873550 457.977325,162.367874 
	C458.030273,161.972580 458.001190,162.002319 457.988037,162.018463 
z"/>
<path fill="#000000" opacity="1.000000" stroke="none" 
	d="
M423.347656,118.529877 
	C431.689331,121.855309 431.871460,123.053391 425.395477,133.267548 
	C418.503418,130.664307 411.429535,128.010620 404.371918,125.314323 
	C402.499390,124.598930 402.566071,123.066101 403.180573,121.580956 
	C404.319366,118.828476 405.594391,116.132347 406.978485,113.042686 
	C412.673523,114.100266 417.694244,116.678482 423.347656,118.529877 
z"/>
<path fill="#000000" opacity="1.000000" stroke="none" 
	d="
M384.159485,138.669983 
	C383.399017,137.024811 384.193146,135.667770 384.990295,133.987610 
	C389.244812,126.290649 392.068756,118.302620 395.557556,110.614479 
	C396.717438,108.058456 397.357758,104.629639 401.825653,106.454933 
	C404.794617,107.667870 405.572021,109.030411 404.298248,112.062920 
	C400.769012,120.464981 397.420807,128.944687 394.115082,137.438095 
	C393.049866,140.174927 391.518158,141.022461 388.757233,139.814224 
	C387.421783,139.229813 385.913422,139.040390 384.159485,138.669983 
z"/>
<path fill="#000000" opacity="1.000000" stroke="none" 
	d="
M228.041199,217.928741 
	C227.753235,218.582428 227.651474,218.908920 227.470474,219.183121 
	C226.159348,221.169388 226.460602,224.897797 223.557053,224.976852 
	C220.129211,225.070206 216.854095,223.234100 213.865341,221.431488 
	C212.232269,220.446533 212.840668,218.821976 213.460068,217.405167 
	C215.655960,212.382294 217.870438,207.367569 220.064270,202.343796 
	C220.849945,200.544601 222.033447,199.803131 224.011566,200.557785 
	C225.712250,201.206604 227.450424,201.776260 229.205444,202.259537 
	C233.007248,203.306427 233.822784,205.390396 231.976761,208.902115 
	C230.512543,211.687561 229.438202,214.677948 228.041199,217.928741 
z"/>
<path fill="#000000" opacity="1.000000" stroke="none" 
	d="
M421.980957,149.246140 
	C426.421356,139.001236 430.767181,129.135254 435.027954,119.462379 
	C436.747711,118.815758 437.892365,119.726715 439.140717,120.024734 
	C442.447571,120.814156 443.390686,122.438828 441.821014,125.773087 
	C437.999481,133.890579 434.492981,142.155869 430.770081,150.320801 
	C430.068695,151.859146 429.714996,154.391205 427.262695,153.745331 
	C425.066101,153.166794 422.024506,153.119049 421.980957,149.246140 
z"/>
<path fill="#000000" opacity="1.000000" stroke="none" 
	d="
M320.095642,83.766655 
	C314.511017,95.140015 316.865479,93.831696 306.174072,89.896301 
	C305.086365,89.495926 304.005005,89.078331 302.915680,88.682526 
	C291.446655,84.515289 293.708405,85.821823 298.635071,76.695465 
	C299.949493,74.260620 301.249329,73.258629 304.089813,74.529388 
	C308.312622,76.418549 312.707581,77.925385 317.041962,79.561333 
	C318.840607,80.240196 320.450745,81.014046 320.095642,83.766655 
z"/>
<path fill="#000000" opacity="1.000000" stroke="none" 
	d="
M500.902740,148.271194 
	C498.502350,159.766647 497.844147,160.139633 487.469727,156.281158 
	C485.910339,155.701187 484.378204,155.047134 482.814941,154.478348 
	C475.022156,151.642990 474.322052,148.972733 479.338776,142.126816 
	C480.477295,140.573166 481.736969,140.364136 483.207947,140.913071 
	C489.102905,143.112915 495.271576,144.638016 500.902740,148.271194 
z"/>
<path fill="#000000" opacity="1.000000" stroke="none" 
	d="
M488.210571,198.677551 
	C490.103302,200.165710 492.583771,200.521378 493.085693,203.028168 
	C489.393158,204.837997 476.365479,203.244507 474.404449,200.397736 
	C472.056396,196.989166 475.668732,195.190353 477.026001,192.539368 
	C481.370911,193.460617 484.216797,196.779373 488.210571,198.677551 
z"/>
<path fill="#000000" opacity="1.000000" stroke="none" 
	d="
M444.632629,317.185516 
	C438.074097,320.084808 432.069824,317.674133 426.309326,314.900208 
	C424.125610,313.848694 425.076172,311.458191 429.407074,306.975616 
	C434.629028,309.884277 439.971710,312.765808 444.632629,317.185516 
z"/>
<path fill="#000000" opacity="1.000000" stroke="none" 
	d="
M485.467560,176.883453 
	C490.275452,180.586594 495.815552,182.680725 500.218292,186.720154 
	C496.229279,188.978668 483.352478,187.254623 480.778809,184.393250 
	C479.043396,182.463852 481.313690,178.501572 485.467560,176.883453 
z"/>
<path fill="#000000" opacity="1.000000" stroke="none" 
	d="
M411.221863,377.706909 
	C413.471313,379.368073 416.032593,380.030029 417.422302,382.324738 
	C416.572174,384.374420 414.853516,384.268555 413.260284,383.943604 
	C409.703003,383.218048 405.957581,383.451935 402.562256,381.961639 
	C400.822632,381.198090 398.253479,381.159698 397.980621,378.741364 
	C397.704254,376.292175 399.218170,374.171875 401.062469,372.806549 
	C402.972229,371.392700 404.322144,373.585388 405.817047,374.424133 
	C407.549469,375.396088 409.218750,376.480499 411.221863,377.706909 
z"/>
<path fill="#000000" opacity="1.000000" stroke="none" 
	d="
M404.977356,361.244873 
	C408.227966,354.806519 408.243164,354.782715 414.186218,358.575531 
	C417.719574,360.830475 421.730377,362.453674 424.633728,365.865997 
	C419.101593,368.637726 408.073669,366.119659 404.977356,361.244873 
z"/>
<path fill="#000000" opacity="1.000000" stroke="none" 
	d="
M446.154602,276.025787 
	C450.605194,278.863007 454.784637,281.487183 459.162811,284.236115 
	C454.900238,287.313232 444.853882,285.705109 439.079407,281.496399 
	C440.683044,275.040070 441.693604,274.195923 446.154602,276.025787 
z"/>
<path fill="#000000" opacity="1.000000" stroke="none" 
	d="
M470.684082,218.806396 
	C465.415466,216.134521 465.396240,215.190643 470.557983,208.879364 
	C475.809814,212.203186 481.127533,215.568726 487.648224,219.695633 
	C480.947632,221.907120 476.013458,219.956055 470.684082,218.806396 
z"/>
<path fill="#000000" opacity="1.000000" stroke="none" 
	d="
M468.964722,227.978210 
	C472.761414,230.355988 476.253387,232.536743 480.112946,234.947052 
	C478.273865,237.102234 476.427734,237.027145 474.467010,236.685303 
	C471.693176,236.201736 468.866852,235.940750 466.146027,235.255020 
	C463.808807,234.665970 460.624725,234.415405 460.119202,231.642700 
	C459.628662,228.951981 461.727692,226.819229 463.920044,224.876343 
	C465.593750,225.902054 467.126892,226.841614 468.964722,227.978210 
z"/>
<path fill="#000000" opacity="1.000000" stroke="none" 
	d="
M420.362122,325.335358 
	C421.432037,323.808899 422.315918,322.296387 424.103333,323.415894 
	C428.943115,326.447052 433.706726,329.599854 438.772797,332.880737 
	C434.595062,335.163055 422.200562,333.638641 419.542633,330.977417 
	C417.472412,328.904694 419.717529,327.386505 420.362122,325.335358 
z"/>
<path fill="#000000" opacity="1.000000" stroke="none" 
	d="
M420.076416,350.349365 
	C419.024445,350.121704 418.385681,349.951813 417.753387,349.760437 
	C409.964172,347.402740 409.570312,345.553833 415.990570,339.464996 
	C421.056854,342.702972 426.212982,345.998352 432.132355,349.781555 
	C427.420685,352.320984 423.946198,350.950623 420.076416,350.349365 
z"/>
<path fill="#000000" opacity="1.000000" stroke="none" 
	d="
M445.329956,295.631256 
	C447.655884,297.436859 450.424194,298.119720 451.787445,300.603577 
	C450.628265,302.940277 448.641510,302.223724 446.964111,301.998657 
	C444.349762,301.647797 441.739197,301.153961 439.184082,300.498291 
	C431.004089,298.399078 430.694550,297.353699 436.376984,290.168518 
	C439.203857,291.896301 442.109528,293.672241 445.329956,295.631256 
z"/>
<path fill="#000000" opacity="1.000000" stroke="none" 
	d="
M456.587219,268.871155 
	C454.251740,268.278595 452.313202,267.860626 450.412811,267.310760 
	C448.527649,266.765259 446.129028,266.335846 446.102966,263.933624 
	C446.079498,261.775116 447.596161,259.830597 449.250824,258.524780 
	C451.161743,257.016754 452.594513,259.022522 453.995758,259.988953 
	C457.851227,262.648041 462.472382,264.251373 466.024963,268.372009 
	C462.741974,269.878601 459.857178,269.283813 456.587219,268.871155 
z"/>
<path fill="#000000" opacity="1.000000" stroke="none" 
	d="
M454.398743,244.528656 
	C455.479980,243.317383 456.054016,241.255310 457.504822,242.093658 
	C462.633087,245.056992 467.565948,248.358475 472.287506,252.076569 
	C465.829193,254.283356 460.060425,252.770462 454.517975,250.249039 
	C451.532959,248.891098 453.208649,246.722580 454.398743,244.528656 
z"/>
<path fill="#000000" opacity="1.000000" stroke="none" 
	d="
M408.076416,399.960388 
	C404.319611,398.511932 398.701935,393.520813 395.243896,388.614990 
	C401.001465,390.652588 405.278656,393.969696 409.675629,396.943054 
	C412.050934,398.549286 410.504578,399.615967 408.076416,399.960388 
z"/>
<path fill="#000000" opacity="1.000000" stroke="none" 
	d="
M198.131241,275.979614 
	C197.551804,276.265289 197.210785,276.487366 196.925552,276.430328 
	C194.758636,275.996948 192.890350,279.739502 191.182220,277.646637 
	C188.854660,274.794891 184.950546,272.682434 185.145523,268.148956 
	C193.091705,266.618835 197.501007,269.194336 198.131241,275.979614 
z"/>
<path fill="#000000" opacity="1.000000" stroke="none" 
	d="
M180.944611,237.097183 
	C185.023193,242.684875 184.981415,243.917603 180.796494,245.740295 
	C175.869598,247.886169 176.436447,241.880890 173.583801,240.749512 
	C172.503235,240.320953 172.227249,237.815338 173.461823,237.336395 
	C175.705582,236.465988 178.086975,233.070999 180.944611,237.097183 
z"/>
<path fill="#000000" opacity="1.000000" stroke="none" 
	d="
M211.652924,243.162537 
	C212.504913,244.209534 213.021896,245.081726 213.751328,245.705566 
	C215.487701,247.190704 216.469086,249.151031 214.615540,250.710495 
	C212.902298,252.151932 210.302017,252.854797 208.436996,250.550171 
	C206.813995,248.544586 204.988800,246.523300 205.104385,243.361313 
	C207.190903,242.795120 209.082809,240.989120 211.652924,243.162537 
z"/>
<path fill="#000000" opacity="1.000000" stroke="none" 
	d="
M74.510773,265.213074 
	C71.163300,269.627258 66.650856,271.413788 61.658836,272.203186 
	C60.545303,272.379303 59.227001,272.338104 58.900452,270.796082 
	C58.698868,269.844208 59.231785,269.027679 60.111813,268.965302 
	C64.757553,268.636230 68.634438,266.602203 72.306366,263.918671 
	C73.154907,263.298553 74.233788,263.591980 74.510773,265.213074 
z"/>
<path fill="#000000" opacity="1.000000" stroke="none" 
	d="
M228.263947,318.168060 
	C228.441711,326.612976 219.758179,330.125977 214.621185,325.931335 
	C213.281738,324.837585 211.528458,323.754395 212.844421,321.171051 
	C216.041031,322.024933 218.278854,326.731689 222.376511,323.855072 
	C226.072128,321.260681 224.359711,317.210571 224.781998,313.573547 
	C227.897125,313.732635 227.790146,315.977234 228.263947,318.168060 
z"/>
<path fill="#000000" opacity="1.000000" stroke="none" 
	d="
M237.690201,301.564026 
	C239.251328,299.664886 238.018204,297.283447 239.748505,295.503082 
	C242.333115,296.878784 242.280090,298.928528 241.481857,301.305084 
	C240.284836,304.868866 237.662247,306.850830 234.112183,306.991913 
	C230.707077,307.127258 228.295288,305.262207 227.132477,301.384186 
	C230.880600,301.065063 234.094696,306.450653 237.690201,301.564026 
z"/>
<path fill="#000000" opacity="1.000000" stroke="none" 
	d="
M247.844223,314.397949 
	C252.035706,312.749939 252.609314,316.115784 253.301392,318.538696 
	C254.029770,321.088654 252.809021,322.902039 249.390854,323.035950 
	C249.813324,319.935333 249.668594,317.089478 247.844223,314.397949 
z"/>
<path fill="#000000" opacity="1.000000" stroke="none" 
	d="
M256.238281,316.017181 
	C257.427246,313.436920 254.866455,311.758575 255.373032,309.236420 
	C258.212189,308.744843 259.021912,311.036957 259.729675,312.801971 
	C260.892761,315.702423 259.163696,317.747742 257.245667,319.570831 
	C254.925537,318.908997 255.838562,317.531219 256.238281,316.017181 
z"/>
<path fill="#000000" opacity="1.000000" stroke="none" 
	d="
M265.027527,306.883270 
	C267.014648,309.950317 266.810608,312.263153 263.571411,314.394867 
	C262.051697,311.489716 263.264038,308.252106 261.132263,306.083954 
	C262.961151,304.129425 263.864410,305.533081 265.027527,306.883270 
z"/>
<path fill="#000000" opacity="1.000000" stroke="none" 
	d="
M268.905792,303.106232 
	C271.167084,299.782898 271.902161,302.623291 272.337494,303.937683 
	C273.099121,306.237183 273.234924,308.676971 269.632507,309.294525 
	C269.370697,307.169037 269.141693,305.309814 268.905792,303.106232 
z"/>
<path fill="#000000" opacity="1.000000" stroke="none" 
	d="
M337.151672,225.491913 
	C333.470154,225.858246 330.304230,225.192352 326.719574,223.930328 
	C330.473907,220.726135 335.778656,222.340912 339.046387,219.173874 
	C338.823608,216.366455 336.746857,215.481033 335.018402,214.246582 
	C332.798035,212.660828 333.067444,210.982147 335.613739,210.477524 
	C341.081482,209.393951 344.020477,206.631439 344.237488,200.780090 
	C344.303192,199.008453 345.163025,195.858429 347.971130,196.369263 
	C351.053894,196.930008 350.574036,200.034134 350.189606,202.191650 
	C349.154175,208.002411 346.774170,213.435684 343.129944,217.991562 
	C341.174805,220.435822 342.055511,225.070343 337.151672,225.491913 
z"/>
<path fill="#000000" opacity="1.000000" stroke="none" 
	d="
M336.677185,234.619812 
	C334.475342,238.480820 331.304596,237.946442 328.147125,237.272339 
	C326.663177,236.955521 325.172089,236.383865 324.911133,234.628174 
	C324.629272,232.731812 325.810669,231.363220 327.285461,230.591080 
	C329.996643,229.171600 333.089417,228.959518 335.962463,229.621033 
	C338.926849,230.303543 337.997894,232.443420 336.677185,234.619812 
z"/>
<path fill="#000000" opacity="1.000000" stroke="none" 
	d="
M316.291016,212.218842 
	C316.949463,209.804047 317.214661,207.178909 319.794067,207.004700 
	C322.534027,206.819611 324.402740,209.193161 326.498871,210.688171 
	C326.894257,210.970184 327.193542,212.067993 326.965881,212.434021 
	C325.240295,215.208252 322.094971,214.641953 319.510132,215.291321 
	C317.559845,215.781281 315.785065,215.327744 316.291016,212.218842 
z"/>
<path fill="#000000" opacity="1.000000" stroke="none" 
	d="
M318.687134,218.260651 
	C319.973511,221.187424 323.852081,220.487457 324.966858,223.941696 
	C321.586029,225.864319 318.222260,225.771484 315.010406,223.929657 
	C312.933716,222.738800 314.096771,220.746490 314.625977,219.052017 
	C315.351654,216.728470 316.782227,216.969147 318.687134,218.260651 
z"/>
<path fill="#000000" opacity="1.000000" stroke="none" 
	d="
M340.116821,188.898285 
	C336.699280,186.378647 338.187347,183.686600 339.601776,181.309616 
	C340.736145,179.403183 342.643921,178.885330 344.919586,180.584198 
	C344.217896,183.765427 344.709167,187.522537 340.116821,188.898285 
z"/>
<path fill="#000000" opacity="1.000000" stroke="none" 
	d="
M336.056335,202.077118 
	C334.178314,203.029022 332.637665,202.916138 331.978516,201.217194 
	C331.187103,199.177231 332.679443,197.790939 334.027435,196.513367 
	C335.202576,195.399628 336.801056,194.569672 338.039307,195.771729 
	C340.916077,198.564301 337.464661,199.957458 336.056335,202.077118 
z"/>
</svg>